# xmcd CD database file
#
# Track frame offsets:
#	150
#	15010
#	39882
#	61385
#	81792
#	102775
#	120255
#	147290
#	168120
#	187072
#
# Disc length: 2704 seconds
#
# Revision: 0
# Processed by: cddbd v1.5.1PL2 Copyright (c) Steve Scherf et al.
# Submitted via: CDex 1.51
#
DISCID=6c0a8e0a
DTITLE=9th Street - The Prayer
DYEAR=1987
DGENRE=Jazz
TTITLE0=Feel It
TTITLE1=Some Time
TTITLE2=The Feeling's Gone
TTITLE3=The Prayer
TTITLE4=Tonight
TTITLE5=Nobody Knows
TTITLE6=Confusion
TTITLE7=Ordinary Man
TTITLE8=Sabotage and Secrets
TTITLE9=I Heard It Through The Grapevine
EXTD=YEAR: 1987
EXTT0=
EXTT1=
EXTT2=
EXTT3=
EXTT4=
EXTT5=
EXTT6=
EXTT7=
EXTT8=
EXTT9=
PLAYORDER=
